<svg width="132" height="125" viewBox="0 0 132 125" fill="none" xmlns="http://www.w3.org/2000/svg">
<path d="M131.868 62.4997C131.868 68.9058 118.884 73.1948 116.993 78.9753C115.034 84.9661 122.931 96.002 119.276 100.988C115.585 106.025 102.55 101.958 97.4784 105.623C92.4568 109.252 92.3455 122.837 86.3124 124.782C80.4911 126.659 72.3854 115.794 65.9341 115.794C59.4827 115.794 51.3764 126.659 45.5551 124.782C39.522 122.837 39.4107 109.252 34.389 105.623C29.3171 101.958 16.2823 106.025 12.5911 100.988C8.93675 96.002 16.8339 84.9661 14.8747 78.9753C12.9845 73.1948 0 68.9058 0 62.5003C0 56.0942 12.9845 51.8052 14.8747 46.0247C16.8339 40.0339 8.93675 28.998 12.5911 24.0115C16.2823 18.9751 29.3171 23.0424 34.389 19.3771C39.4107 15.7484 39.522 2.16339 45.5551 0.217913C51.3764 -1.65901 59.482 9.20582 65.9334 9.20582C72.3848 9.20582 80.4911 -1.65901 86.3124 0.217913C92.3455 2.16339 92.4568 15.7484 97.4784 19.3771C102.55 23.0424 115.585 18.9751 119.276 24.0115C122.931 28.998 115.034 40.0339 116.993 46.0247C118.884 51.8052 131.868 56.0942 131.868 62.4997Z" fill="#2BAFC7"/>
<path d="M131.867 62.4993C131.867 56.0932 118.87 51.8043 116.978 46.0245C115.018 40.0337 122.922 28.9979 119.264 24.0115C115.569 18.9751 102.522 23.0424 97.4452 19.3771C92.4187 15.7478 92.3073 2.16349 86.2684 0.218031C82.0269 -1.14838 76.573 4.23474 71.4284 7.26641C73.1453 11.8489 74.4093 17.2779 77.317 19.3778C82.3939 23.0431 95.4412 18.9758 99.1359 24.0121C102.794 28.9986 94.8897 40.0344 96.8501 46.0252C98.7421 51.8056 111.739 56.0946 111.739 62.5C111.739 68.9061 98.7421 73.195 96.8501 78.9755C94.889 84.9663 102.794 96.0021 99.1353 100.989C95.4405 106.025 82.3932 101.958 77.3164 105.623C74.4086 107.722 73.1446 113.151 71.4277 117.734C76.5723 120.765 82.0255 126.148 86.2677 124.782C92.3067 122.837 92.418 109.252 97.4445 105.623C102.521 101.958 115.569 106.025 119.263 100.989C122.922 96.0021 115.017 84.9663 116.978 78.9755C118.87 73.1944 131.867 68.9054 131.867 62.4993Z" fill="#2BC1DC"/>
<path d="M59.8476 90.6593C59.1862 90.6593 58.5315 90.5257 57.9223 90.2665C57.313 90.0073 56.7615 89.6276 56.3005 89.15L35.7408 67.855C34.8258 66.9072 34.322 65.6321 34.3403 64.3102C34.3586 62.9883 34.8975 61.7279 35.8385 60.8062C36.7794 59.8846 38.0453 59.3771 39.3577 59.3956C40.67 59.414 41.9214 59.9568 42.8364 60.9046L59.2927 77.9502L87.1966 39.1483C87.9666 38.0777 89.1272 37.359 90.4233 37.1504C91.7193 36.9417 93.0446 37.2602 94.1075 38.0358C95.1704 38.8113 95.8839 39.9804 96.091 41.2859C96.2981 42.5913 95.9819 43.9262 95.212 44.9968L63.8559 88.5991C63.3968 89.2369 62.7942 89.7562 62.0975 90.1143C61.4008 90.4724 60.6298 90.6592 59.8476 90.6593Z" fill="white"/>
</svg>
