<svg width="73" height="73" viewBox="0 0 73 73" fill="none" xmlns="http://www.w3.org/2000/svg">
<g clip-path="url(#clip0_283_2097)">
<path d="M22.2422 52.7542C21.4552 52.7542 20.8164 53.3929 20.8164 54.1799C20.8164 54.967 21.4552 55.6057 22.2422 55.6057C23.0292 55.6057 23.668 54.967 23.668 54.1799C23.668 53.3929 23.0292 52.7542 22.2422 52.7542Z" fill="#2BAFC7"/>
<path d="M64.1807 27.0897L72.5827 18.6877C72.7565 18.514 72.8824 18.2982 72.9482 18.0615C73.014 17.8247 73.0175 17.575 72.9584 17.3365C72.8992 17.098 72.7795 16.8788 72.6107 16.7002C72.4419 16.5216 72.2298 16.3897 71.995 16.3172L51.535 10.0024C49.6907 4.07388 44.2088 0 37.9258 0C32.0852 0 26.8617 3.55946 24.6998 8.92896L1.00136 16.3185C0.767088 16.3915 0.555639 16.5238 0.387467 16.7025C0.219295 16.8812 0.100092 17.1003 0.0413925 17.3386C-0.0173071 17.5769 -0.0135168 17.8262 0.0523966 18.0626C0.11831 18.299 0.244115 18.5143 0.417641 18.6879L9.04062 27.3108L3.60212 36.3752C3.4923 36.5583 3.42499 36.7638 3.40516 36.9763C3.38534 37.1889 3.41351 37.4032 3.48758 37.6035C3.56166 37.8037 3.67976 37.9848 3.83316 38.1333C3.98657 38.2818 4.17136 38.3939 4.3739 38.4614L12.2617 41.0906V63.0194C12.2618 63.3096 12.3503 63.5929 12.5157 63.8315C12.681 64.07 12.9152 64.2524 13.1869 64.3543C18.0099 66.1628 35.9299 72.8837 36.0261 72.9177C36.3205 73.0222 36.6411 73.0266 36.9383 72.9304C36.9425 72.929 36.9467 72.9281 36.9509 72.9267L62.6149 64.372C62.8988 64.2774 63.1457 64.0958 63.3207 63.8531C63.4957 63.6103 63.5899 63.3186 63.5899 63.0194V40.5034L72.0017 37.8601C72.2356 37.7866 72.4465 37.6541 72.6142 37.4753C72.7819 37.2965 72.9007 37.0775 72.9591 36.8394C73.0175 36.6014 73.0135 36.3523 72.9475 36.1162C72.8816 35.8801 72.7559 35.665 72.5826 35.4917L64.1807 27.0897ZM52.1836 14.2578C52.1836 13.8955 52.1684 13.5341 52.1411 13.1738L68.8932 18.3444L61.779 25.4585L50.1549 21.5842C51.4712 19.3841 52.1836 16.8453 52.1836 14.2578ZM27.1365 10.5468C28.7193 5.94408 33.0552 2.85156 37.9258 2.85156C43.1728 2.85156 47.7236 6.40062 48.9924 11.4821C49.2184 12.39 49.3325 13.3222 49.3321 14.2578C49.3321 16.9061 48.4532 19.3882 46.7902 21.4369C44.612 24.1234 41.3811 25.6641 37.9258 25.6641C34.1908 25.6641 30.6876 23.8308 28.5537 20.7588C27.223 18.8474 26.5196 16.5992 26.5196 14.2578C26.5196 12.9844 26.727 11.7359 27.1365 10.5468ZM4.10129 18.3388L23.8198 12.1903C23.7195 12.8749 23.6688 13.5658 23.668 14.2577C23.668 16.5533 24.2118 18.7768 25.2483 20.783L11.2211 25.4585L4.10129 18.3388ZM6.96183 36.3182L11.4702 28.8041L34.3629 36.435L29.8548 43.9491L6.96183 36.3182ZM35.0742 69.5168L15.1133 62.0315V42.0412C30.8183 47.2484 30.0514 47.0894 30.4887 47.0894C30.9788 47.0894 31.4482 46.8358 31.7115 46.3971L35.0742 40.7922V69.5168ZM36.5 34.1416L15.3449 27.09L26.8643 23.2504C29.5605 26.5649 33.6192 28.5156 37.9258 28.5156C41.9097 28.5156 45.654 26.8761 48.3471 23.9875L57.6552 27.0898L36.5 34.1416ZM60.7383 61.9918L37.9258 69.5959V39.7087L42.9804 46.0264C43.16 46.2508 43.4032 46.4157 43.6781 46.4995C43.9531 46.5833 44.247 46.582 44.5212 46.4959L60.7383 41.3997V61.9918ZM44.5973 43.483L38.8908 36.3504L61.779 28.7211L68.9028 35.8449L44.5973 43.483Z" fill="#2BAFC7"/>
<path d="M31.2981 55.9187L28.1272 54.7296C27.3899 54.4533 26.5681 54.8267 26.2915 55.564C26.0151 56.3014 26.3886 57.1232 27.1259 57.3997L30.2968 58.5888C31.0357 58.8657 31.8565 58.4904 32.1325 57.7544C32.409 57.0172 32.0354 56.1952 31.2981 55.9187ZM31.298 62.0097L22.7433 58.8017C22.006 58.5252 21.1842 58.8988 20.9076 59.636C20.631 60.3733 21.0047 61.1953 21.742 61.4717L30.2967 64.6797C30.4566 64.74 30.6262 64.7709 30.7971 64.771C31.3744 64.771 31.9176 64.4178 32.1324 63.8454C32.409 63.1079 32.0354 62.2861 31.298 62.0097ZM46.0635 8.97232C45.5068 8.41541 44.604 8.41555 44.0471 8.97232L36.5005 16.519L34.6571 14.6756C34.1004 14.1188 33.1976 14.1188 32.6407 14.6756C32.0837 15.2324 32.0839 16.1352 32.6407 16.6921L35.4924 19.5435C36.0491 20.1003 36.9519 20.1003 37.5088 19.5435L46.0635 10.9888C46.6203 10.432 46.6203 9.52923 46.0635 8.97232Z" fill="#2BAFC7"/>
</g>
<defs>
<clipPath id="clip0_283_2097">
<rect width="73" height="73" fill="white"/>
</clipPath>
</defs>
</svg>
