<svg width="30" height="27" viewBox="0 0 30 27" fill="none" xmlns="http://www.w3.org/2000/svg">
<path d="M30 8.1C30 7.91382 29.9395 7.71582 29.8214 7.55616L24.4894 0.35616C24.3245 0.13386 24.061 0 23.7891 0H6.21094C5.94223 0 5.67697 0.13152 5.51062 0.35616L0.178594 7.55616C0.0605859 7.7157 0 7.90812 0 8.1C0 8.3067 0.072832 8.50956 0.193711 8.66364L14.3148 26.6636C14.485 26.8799 14.7407 27 15 27C15.2621 27 15.5173 26.877 15.6852 26.6636L29.8063 8.66364C29.9275 8.50932 30 8.30526 30 8.1ZM6.05701 2.59728L8.30443 7.2H2.64844L6.05701 2.59728ZM19.0922 9L15 22.9679L10.9078 9H19.0922ZM11.4844 7.2L15 2.4L18.5156 7.2H11.4844ZM16.7578 1.8H22.367L20.1233 6.39504L16.7578 1.8ZM9.87668 6.39504L7.63307 1.8H13.2422L9.87668 6.39504ZM9.07266 9L12.8636 21.9397L2.71236 9H9.07266ZM20.9274 9H27.2877L17.1365 21.9396L20.9274 9ZM21.6956 7.2L23.943 2.59728L27.3516 7.2H21.6956Z" fill="white"/>
</svg>
