<svg width="34" height="34" viewBox="0 0 34 34" fill="none" xmlns="http://www.w3.org/2000/svg">
<path d="M23.4063 14.6094C23.4063 13.8759 22.8116 13.2812 22.0781 13.2812H8.39844C7.66491 13.2812 7.07031 13.8759 7.07031 14.6094C7.07031 15.3429 7.66491 15.9375 8.39844 15.9375H22.0781C22.8116 15.9375 23.4063 15.3429 23.4063 14.6094ZM8.39844 18.5938C7.66491 18.5938 7.07031 19.1884 7.07031 19.9219C7.07031 20.6554 7.66491 21.25 8.39844 21.25H16.7066C17.4401 21.25 18.0347 20.6554 18.0347 19.9219C18.0347 19.1884 17.4401 18.5938 16.7066 18.5938H8.39844Z" fill="white"/>
<path d="M11.52 31.3438H7.07813C5.61347 31.3438 4.42188 30.1522 4.42188 28.6875V5.3125C4.42188 3.84784 5.61347 2.65625 7.07813 2.65625H23.4067C24.8714 2.65625 26.0629 3.84784 26.0629 5.3125V13.4805C26.0629 14.214 26.6575 14.8086 27.3911 14.8086C28.1246 14.8086 28.7192 14.214 28.7192 13.4805V5.3125C28.7192 2.38319 26.336 0 23.4067 0H7.07813C4.14881 0 1.76562 2.38319 1.76562 5.3125V28.6875C1.76562 31.6168 4.14881 34 7.07813 34H11.52C12.2535 34 12.8481 33.4054 12.8481 32.6719C12.8481 31.9384 12.2535 31.3438 11.52 31.3438Z" fill="white"/>
<path d="M31.0712 19.2294C29.5177 17.6759 26.99 17.6758 25.4375 19.2283L18.1459 26.5038C17.991 26.6583 17.8768 26.8487 17.8132 27.058L16.2252 32.2858C16.1561 32.5133 16.1493 32.7553 16.2057 32.9863C16.262 33.2174 16.3793 33.4291 16.5454 33.5993C16.7114 33.7695 16.9202 33.892 17.1498 33.954C17.3794 34.016 17.6214 34.0152 17.8506 33.9517L23.2112 32.4668C23.4318 32.4057 23.6329 32.2886 23.7949 32.1269L31.0713 24.8642C32.6248 23.3107 32.6248 20.783 31.0712 19.2294ZM22.1656 30.0002L19.4687 30.7473L20.2579 28.1489L25.1779 23.2398L27.0565 25.1184L22.1656 30.0002ZM29.194 22.9852L28.9366 23.242L27.0583 21.3637L27.3148 21.1078C27.8326 20.5899 28.6752 20.5899 29.193 21.1078C29.7109 21.6256 29.7109 22.4682 29.194 22.9852ZM22.0781 7.96875H8.39844C7.66491 7.96875 7.07031 8.56335 7.07031 9.29688C7.07031 10.0304 7.66491 10.625 8.39844 10.625H22.0781C22.8116 10.625 23.4063 10.0304 23.4063 9.29688C23.4063 8.56335 22.8116 7.96875 22.0781 7.96875Z" fill="white"/>
</svg>
