<svg width="20" height="23" viewBox="0 0 20 23" fill="none" xmlns="http://www.w3.org/2000/svg">
<path d="M18.911 9.55388L15.1039 7.35498L11.2063 11.2526L15.1036 15.1499L18.9239 12.9437C19.5197 12.5818 19.8752 11.9495 19.8752 11.2526C19.8752 10.5557 19.5194 9.92341 18.911 9.55388Z" fill="#FFCE00"/>
<path d="M11.2098 11.2537L0.593492 0.561035C0.405357 0.747417 0.256036 0.969246 0.154166 1.2137C0.052296 1.45815 -0.000102637 1.72036 1.50933e-07 1.98519V20.4897C1.50933e-07 21.0435 0.224246 21.5446 0.593492 21.9141L11.2098 11.2537Z" fill="url(#paint0_linear_4820_519)"/>
<path d="M11.2102 11.2537L15.1078 7.35606L15.114 7.34988L9.8917 4.34308L3.00752 0.2971C2.38762 -0.0853536 1.63592 -0.098561 1.0028 0.257478C0.857801 0.349649 0.725727 0.442101 0.593933 0.560687L11.2102 11.2537Z" fill="#00F076"/>
<path d="M0.593933 21.914C0.725727 22.0326 0.857801 22.125 1.0028 22.2172C1.31922 22.3886 1.64912 22.4811 1.97875 22.4811C2.33479 22.4811 2.67762 22.3757 2.99432 22.1911L9.89142 18.1645L15.1137 15.1577L15.1075 15.1515L11.2102 11.2539L0.593933 21.914Z" fill="#F63448"/>
<defs>
<linearGradient id="paint0_linear_4820_519" x1="-4.74457" y1="16.5758" x2="5.93183" y2="5.89909" gradientUnits="userSpaceOnUse">
<stop stop-color="#00E2FF"/>
<stop offset="1" stop-color="#00C5FF"/>
</linearGradient>
</defs>
</svg>
