<svg width="30" height="34" viewBox="0 0 30 34" fill="none" xmlns="http://www.w3.org/2000/svg">
<path d="M15 0L0 8.50003V25.5L15 34L30 25.5V8.50003L15 0ZM16.0149 2.8756L26.9552 9.07511L22.8927 11.3772L16.0149 7.47983V2.8756ZM13.9851 2.87567V7.4799L7.10735 11.3773L3.04482 9.07518L13.9851 2.87567ZM2.02988 10.8006L6.09241 13.1027V20.8975L2.02988 23.1996V10.8006ZM13.9851 31.1245L3.04475 24.925L7.10728 22.6228L13.985 26.5202V31.1245H13.9851ZM8.12228 20.8974V13.1027L15 9.20527L21.8777 13.1027V20.8975L15 24.7948L8.12228 20.8974ZM16.0149 31.1245V26.5202L22.8926 22.6228L26.9551 24.925L16.0149 31.1245ZM27.9701 23.1996L23.9076 20.8975V13.1027L27.9701 10.8006V23.1996Z" fill="white"/>
</svg>
