<svg width="18" height="18" viewBox="0 0 18 18" fill="none" xmlns="http://www.w3.org/2000/svg">
<path fill-rule="evenodd" clip-rule="evenodd" d="M9.00309 0C6.61661 0.00244921 4.32853 0.951186 2.64074 2.63811C0.952952 4.32502 0.0032679 6.61239 0 8.99846C0.00408022 11.3846 0.953927 13.6718 2.64145 15.359C4.32897 17.0462 6.61657 17.9959 9.00309 18C11.389 17.9959 13.676 17.046 15.3625 15.3586C17.0491 13.6712 17.9976 11.384 18 8.99846C17.9975 6.61267 17.0485 4.3253 15.3613 2.63829C13.674 0.951287 11.3893 0.00245073 9.00309 0ZM9.00309 1.63552C9.97059 1.63349 10.929 1.82257 11.8232 2.19191C12.7174 2.56125 13.5298 3.10357 14.2138 3.78773C14.8978 4.47188 15.4399 5.2844 15.8089 6.17861C16.1779 7.07282 16.3666 8.03112 16.3642 8.99846C16.3658 9.96583 16.1765 10.924 15.8069 11.8181C15.4374 12.7121 14.8951 13.5244 14.2109 14.2085C13.5267 14.8925 12.7143 15.4348 11.8201 15.8042C10.9259 16.1737 9.96754 16.363 9 16.3614C8.03243 16.3622 7.0742 16.1722 6.18017 15.8023C5.28614 15.4324 4.47385 14.8898 3.78982 14.2056C3.10579 13.5214 2.56344 12.709 2.19383 11.815C1.82421 10.9209 1.63458 9.96277 1.6358 8.99537C1.63499 8.02811 1.82504 7.0702 2.19507 6.17649C2.5651 5.28278 3.10783 4.47084 3.79219 3.78717C4.47655 3.10351 5.28908 2.56154 6.18325 2.19233C7.07743 1.82311 8.03566 1.6339 9.00309 1.63552ZM8.99074 4.89731C8.88254 4.89811 8.77558 4.92036 8.67604 4.96278C8.5765 5.0052 8.48638 5.06695 8.41088 5.14445C8.33538 5.22194 8.27601 5.31364 8.23621 5.41424C8.19641 5.51484 8.17697 5.62234 8.17901 5.7305V8.1807H5.73148C5.70269 8.17917 5.67385 8.17917 5.64506 8.1807C5.43864 8.20593 5.24948 8.30854 5.1158 8.46781C4.98212 8.62709 4.91387 8.83115 4.92484 9.03878C4.93581 9.24642 5.02518 9.44215 5.17491 9.58646C5.32463 9.73076 5.52355 9.81287 5.73148 9.81622H8.17901V12.2664C8.17901 12.4837 8.26535 12.6921 8.41902 12.8458C8.5727 12.9994 8.78113 13.0857 8.99846 13.0857C9.21579 13.0857 9.42422 12.9994 9.57789 12.8458C9.73157 12.6921 9.8179 12.4837 9.8179 12.2664V9.8193H12.2685C12.4858 9.8193 12.6943 9.73298 12.848 9.57934C13.0016 9.42569 13.088 9.21729 13.088 9C13.088 8.78271 13.0016 8.57431 12.848 8.42066C12.6943 8.26701 12.4858 8.1807 12.2685 8.1807H9.8179V5.7305C9.81997 5.62103 9.80004 5.51227 9.75928 5.41065C9.71853 5.30903 9.65778 5.21663 9.58064 5.13892C9.50349 5.06122 9.41153 4.99979 9.3102 4.95829C9.20887 4.91679 9.10024 4.89605 8.99074 4.89731Z" fill="#2BAFC7"/>
</svg>
