<svg width="26" height="26" viewBox="0 0 26 26" fill="none" xmlns="http://www.w3.org/2000/svg">
<path d="M14.7053 0.706831C13.7629 -0.23561 12.2355 -0.23561 11.293 0.706831L6.57596 5.42554L12.9992 11.8504L19.424 5.42554L14.7037 0.706831H14.7053ZM20.5712 6.57434L14.1496 12.9992L20.5745 19.424L25.2932 14.7037C26.2356 13.7613 26.2356 12.2355 25.2932 11.2947L20.5745 6.57434H20.5712ZM19.424 20.5712L12.9992 14.1496L6.57434 20.5745L11.2947 25.2932C12.2371 26.2356 13.7629 26.2356 14.7037 25.2932L19.424 20.5745V20.5712ZM5.42716 19.424L11.8488 12.9992L5.42554 6.57434L0.706831 11.2947C-0.23561 12.2371 -0.23561 13.7629 0.706831 14.7037L5.42554 19.424H5.42716Z" fill="#2BAFC7"/>
</svg>
