<svg width="34" height="34" viewBox="0 0 34 34" fill="none" xmlns="http://www.w3.org/2000/svg">
<path d="M34 16.997C33.9991 16.7246 33.8833 16.4705 33.7082 16.2955L17.7047 0.292121C17.5235 0.110765 17.271 0 17.0001 0C16.7398 0 16.4846 0.102797 16.2955 0.292121L0.291924 16.2955C0.107911 16.4795 0 16.7384 0 17C0 17.2552 0.103196 17.5159 0.291924 17.7045L16.2954 33.7079C16.4868 33.8995 16.7493 34 17 34C17.2522 34 17.5137 33.8991 17.7047 33.7079L33.7082 17.7045C33.8935 17.5193 34 17.2663 34 16.997ZM17.0001 23.0766L10.9235 17L17.0001 10.9233L23.0767 17L17.0001 23.0766ZM16.004 9.10215L9.10216 16.0039H3.40088L16.004 3.40086V9.10215ZM9.10216 17.9961L16.004 24.8979V30.5991L3.40088 17.9961H9.10216ZM17.9962 24.8979L24.898 17.9961H30.5993L17.9962 30.5991V24.8979ZM24.898 16.0039L17.9962 9.10215V3.40086L30.5993 16.0039H24.898V16.0039Z" fill="white"/>
</svg>
