<svg width="88" height="88" viewBox="0 0 88 88" fill="none" xmlns="http://www.w3.org/2000/svg">
<path d="M84.9018 43.9981C86.2608 42.4154 87.2132 40.5251 87.6763 38.4911C88.1394 36.4571 88.0992 34.3408 87.5592 32.3258C87.0193 30.3109 85.9958 28.4581 84.5777 26.9282C83.1596 25.3983 81.3896 24.2375 79.4213 23.5465C79.807 21.4963 79.6866 19.3829 79.0705 17.3898C78.4545 15.3967 77.3615 13.584 75.8863 12.1089C74.411 10.6339 72.5982 9.54109 70.605 8.92532C68.6118 8.30955 66.4984 8.18941 64.4483 8.57534C63.7578 6.60658 62.5972 4.83611 61.0673 3.41764C59.5374 1.99917 57.6844 0.975576 55.6691 0.435729C53.6538 -0.104118 51.5373 -0.143899 49.5031 0.319838C47.469 0.783575 45.5788 1.73682 43.9967 3.09679C42.414 1.73775 40.5237 0.78537 38.4897 0.322274C36.4557 -0.140823 34.3394 -0.100649 32.3244 0.439308C30.3094 0.979265 28.4566 2.0027 26.9267 3.42083C25.3968 4.83895 24.2361 6.60894 23.5451 8.57725C21.495 8.19194 19.3819 8.31261 17.389 8.9288C15.3962 9.54499 13.5837 10.6381 12.1089 12.1133C10.6341 13.5884 9.5415 15.4011 8.92582 17.3942C8.31014 19.3872 8.19001 21.5003 8.57584 23.5503C6.60753 24.2413 4.83754 25.4021 3.41941 26.932C2.00128 28.4619 0.977843 30.3147 0.437886 32.3296C-0.102072 34.3446 -0.142251 36.4609 0.320846 38.4949C0.783942 40.529 1.73634 42.4193 3.09538 44.0019C1.73593 45.5845 0.783236 47.4749 0.320008 49.5091C-0.143221 51.5434 -0.103006 53.6599 0.437188 55.6751C0.977381 57.6902 2.00121 59.5431 3.41983 61.0729C4.83844 62.6026 6.60898 63.7631 8.57775 64.4535C8.19159 66.5035 8.31158 68.6168 8.92733 70.6099C9.54309 72.603 10.636 74.4158 12.1112 75.8907C13.5863 77.3657 15.3992 78.4584 17.3924 79.0739C19.3856 79.6894 21.4989 79.8091 23.5489 79.4227C24.2399 81.391 25.4007 83.161 26.9306 84.5791C28.4605 85.9973 30.3133 87.0207 32.3282 87.5606C34.3432 88.1006 36.4595 88.1408 38.4935 87.6777C40.5275 87.2146 42.4179 86.2622 44.0005 84.9032C45.5831 86.2626 47.4735 87.2153 49.5077 87.6785C51.542 88.1418 53.6585 88.1015 55.6736 87.5613C57.6888 87.0211 59.5417 85.9973 61.0715 84.5787C62.6012 83.1601 63.7617 81.3896 64.4521 79.4208C66.5022 79.8068 68.6155 79.6868 70.6086 79.071C72.6018 78.4553 74.4146 77.3624 75.8897 75.8873C77.3648 74.4122 78.4577 72.5994 79.0734 70.6062C79.6892 68.6131 79.8092 66.4997 79.4232 64.4497C81.3917 63.7588 83.1618 62.5981 84.58 61.0681C85.9982 59.5382 87.0216 57.6852 87.5614 55.6701C88.1012 53.655 88.1411 51.5386 87.6776 49.5046C87.2141 47.4706 86.2613 45.5804 84.9018 43.9981Z" fill="#2BAFC7"/>
<path d="M36.1002 60.7941L23.8731 48.5747C23.4091 48.1099 23.1484 47.48 23.1484 46.8232C23.1484 46.1664 23.4091 45.5365 23.8731 45.0717L25.3586 43.5843C25.8234 43.1203 26.4533 42.8596 27.1101 42.8596C27.7669 42.8596 28.3968 43.1203 28.8616 43.5843L37.7497 52.4667L58.6818 30.2226C59.1323 29.7447 59.7539 29.465 60.4103 29.445C61.0667 29.425 61.7042 29.6662 62.1829 30.1158L63.7084 31.5555C64.1869 32.006 64.4669 32.628 64.487 33.2849C64.507 33.9418 64.2654 34.5797 63.8152 35.0585L39.6623 60.7388C39.4349 60.9812 39.1611 61.1754 38.8571 61.3098C38.5532 61.4442 38.2253 61.5161 37.893 61.5213C37.5607 61.5265 37.2307 61.4647 36.9227 61.3398C36.6148 61.2149 36.335 61.0293 36.1002 60.7941Z" fill="white"/>
</svg>
