<svg width="17" height="17" viewBox="0 0 17 17" fill="none" xmlns="http://www.w3.org/2000/svg">
<path d="M15.7546 9.00244C15.5557 9.00244 15.3648 9.08148 15.2241 9.22218C15.0834 9.36287 15.0044 9.55369 15.0044 9.75266V12.9133C15.0038 13.4677 14.7833 13.9992 14.3913 14.3911C13.9994 14.7831 13.4679 15.0036 12.9135 15.0042H3.59131C3.03696 15.0036 2.50548 14.7831 2.1135 14.3911C1.72151 13.9992 1.50104 13.4677 1.50044 12.9133V9.75266C1.50044 9.55369 1.4214 9.36287 1.28071 9.22218C1.14001 9.08148 0.949191 9.00244 0.75022 9.00244C0.55125 9.00244 0.360428 9.08148 0.219734 9.22218C0.0790408 9.36287 0 9.55369 0 9.75266V12.9133C0.000992981 13.8655 0.37968 14.7784 1.05297 15.4517C1.72625 16.125 2.63914 16.5037 3.59131 16.5046H12.9135C13.8657 16.5037 14.7786 16.125 15.4519 15.4517C16.1252 14.7784 16.5039 13.8655 16.5048 12.9133V9.75266C16.5048 9.55369 16.4258 9.36287 16.2851 9.22218C16.1444 9.08148 15.9536 9.00244 15.7546 9.00244Z" fill="#2BAFC7"/>
<path d="M4.28215 5.78179L7.50285 2.56109V12.0034C7.50285 12.2023 7.58189 12.3932 7.72258 12.5339C7.86327 12.6745 8.05409 12.7536 8.25307 12.7536C8.45204 12.7536 8.64286 12.6745 8.78355 12.5339C8.92424 12.3932 9.00329 12.2023 9.00329 12.0034V2.56109L12.224 5.78179C12.3655 5.91845 12.555 5.99406 12.7517 5.99235C12.9484 5.99065 13.1366 5.91175 13.2757 5.77265C13.4148 5.63355 13.4937 5.44539 13.4954 5.24868C13.4971 5.05198 13.4215 4.86247 13.2848 4.72098L8.78347 0.219654C8.64278 0.0790098 8.452 0 8.25307 0C8.05413 0 7.86335 0.0790098 7.72266 0.219654L3.22134 4.72098C3.08468 4.86247 3.00906 5.05198 3.01077 5.24868C3.01248 5.44539 3.09138 5.63355 3.23048 5.77265C3.36957 5.91175 3.55774 5.99065 3.75444 5.99235C3.95115 5.99406 4.14066 5.91845 4.28215 5.78179Z" fill="#2BAFC7"/>
</svg>
