<svg width="48" height="36" viewBox="0 0 48 36" fill="none" xmlns="http://www.w3.org/2000/svg">
<path d="M43 36H5C3.67441 35.9984 2.40356 35.4711 1.46622 34.5338C0.528882 33.5964 0.00158786 32.3256 0 31L0 5C0 2.244 2.244 0 5 0H43C45.756 0 48 2.244 48 5V31C48 33.756 45.756 36 43 36ZM5 2C3.346 2 2 3.346 2 5V31C2 32.654 3.346 34 5 34H43C44.654 34 46 32.654 46 31V5C46 3.346 44.654 2 43 2H5Z" fill="#2BAFC7"/>
<path d="M14.999 18.0002C12.243 18.0002 9.99902 15.7562 9.99902 13.0002C9.99902 10.2442 12.243 8.00024 14.999 8.00024C17.755 8.00024 19.999 10.2442 19.999 13.0002C19.999 15.7562 17.755 18.0002 14.999 18.0002ZM14.999 10.0002C13.345 10.0002 11.999 11.3462 11.999 13.0002C11.999 14.6542 13.345 16.0002 14.999 16.0002C16.653 16.0002 17.999 14.6542 17.999 13.0002C17.999 11.3462 16.653 10.0002 14.999 10.0002ZM22.999 28.0002C22.7338 28.0002 22.4795 27.8949 22.2919 27.7074C22.1044 27.5198 21.999 27.2655 21.999 27.0002V25.0002C21.999 23.3462 20.653 22.0002 18.999 22.0002H10.999C9.34502 22.0002 7.99902 23.3462 7.99902 25.0002V27.0002C7.99902 27.2655 7.89367 27.5198 7.70613 27.7074C7.51859 27.8949 7.26424 28.0002 6.99902 28.0002C6.73381 28.0002 6.47945 27.8949 6.29192 27.7074C6.10438 27.5198 5.99902 27.2655 5.99902 27.0002V25.0002C5.99902 22.2442 8.24302 20.0002 10.999 20.0002H18.999C21.755 20.0002 23.999 22.2442 23.999 25.0002V27.0002C23.999 27.2655 23.8937 27.5198 23.7061 27.7074C23.5186 27.8949 23.2642 28.0002 22.999 28.0002ZM40.999 12.0002H28.999C28.7338 12.0002 28.4795 11.8949 28.2919 11.7074C28.1044 11.5198 27.999 11.2655 27.999 11.0002C27.999 10.735 28.1044 10.4807 28.2919 10.2931C28.4795 10.1056 28.7338 10.0002 28.999 10.0002H40.999C41.2642 10.0002 41.5186 10.1056 41.7061 10.2931C41.8937 10.4807 41.999 10.735 41.999 11.0002C41.999 11.2655 41.8937 11.5198 41.7061 11.7074C41.5186 11.8949 41.2642 12.0002 40.999 12.0002ZM40.999 20.0002H28.999C28.7338 20.0002 28.4795 19.8949 28.2919 19.7074C28.1044 19.5198 27.999 19.2655 27.999 19.0002C27.999 18.735 28.1044 18.4807 28.2919 18.2931C28.4795 18.1056 28.7338 18.0002 28.999 18.0002H40.999C41.2642 18.0002 41.5186 18.1056 41.7061 18.2931C41.8937 18.4807 41.999 18.735 41.999 19.0002C41.999 19.2655 41.8937 19.5198 41.7061 19.7074C41.5186 19.8949 41.2642 20.0002 40.999 20.0002ZM40.999 28.0002H28.999C28.7338 28.0002 28.4795 27.8949 28.2919 27.7074C28.1044 27.5198 27.999 27.2655 27.999 27.0002C27.999 26.735 28.1044 26.4807 28.2919 26.2931C28.4795 26.1056 28.7338 26.0002 28.999 26.0002H40.999C41.2642 26.0002 41.5186 26.1056 41.7061 26.2931C41.8937 26.4807 41.999 26.735 41.999 27.0002C41.999 27.2655 41.8937 27.5198 41.7061 27.7074C41.5186 27.8949 41.2642 28.0002 40.999 28.0002Z" fill="#2BAFC7"/>
</svg>
